<svg width="380" height="380" viewBox="0 0 380 380" fill="none" xmlns="http://www.w3.org/2000/svg">
<g clip-path="url(#clip0_2215_6)">
<rect y="-3.05176e-05" width="380" height="380" rx="100" fill="url(#paint0_linear_2215_6)"/>
<rect x="-157" y="356" width="597.756" height="260.329" transform="rotate(-45.5572 -157 356)" fill="url(#paint1_linear_2215_6)"/>
<rect x="-69.5261" y="226.428" width="500" height="156.598" transform="rotate(-25.3089 -69.5261 226.428)" fill="url(#paint2_linear_2215_6)"/>
<rect x="-64.4604" y="212.293" width="500" height="101.009" transform="rotate(-16.4845 -64.4604 212.293)" fill="url(#paint3_linear_2215_6)"/>
<g clip-path="url(#clip1_2215_6)">
<path d="M190 288.765C244.547 288.765 288.765 244.547 288.765 190C288.765 135.453 244.547 91.2347 190 91.2347C135.453 91.2347 91.2346 135.453 91.2346 190C91.2346 244.547 135.453 288.765 190 288.765Z" fill="url(#paint4_linear_2215_6)"/>
<path d="M190 265.423C231.655 265.423 265.423 231.655 265.423 190C265.423 148.345 231.655 114.577 190 114.577C148.345 114.577 114.577 148.345 114.577 190C114.577 231.655 148.345 265.423 190 265.423Z" fill="white"/>
<path d="M190 256.653C226.811 256.653 256.652 226.811 256.652 190C256.652 153.189 226.811 123.347 190 123.347C153.189 123.347 123.347 153.189 123.347 190C123.347 226.811 153.189 256.653 190 256.653Z" fill="white"/>
<path d="M256.653 190C256.653 203.183 252.743 216.069 245.42 227.03C238.096 237.991 227.686 246.534 215.507 251.579C203.328 256.624 189.926 257.944 176.997 255.372C164.067 252.8 152.191 246.452 142.869 237.131C133.548 227.809 127.2 215.933 124.628 203.003C122.056 190.074 123.376 176.672 128.421 164.493C133.466 152.314 142.009 141.904 152.97 134.58C163.931 127.256 176.817 123.347 190 123.347C207.677 123.347 224.631 130.37 237.13 142.869C249.63 155.369 256.653 172.323 256.653 190Z" fill="#F36E70"/>
<path d="M218.981 185.292C211.604 183.092 208.986 181.882 208.986 179.425C208.986 175.37 214.853 173.837 215.52 173.735C219.245 173.185 223.917 175.128 225.427 179.66L235.467 176.653C232.321 166.687 223 162.28 213.965 163.615C204.667 164.979 198.8 171.667 198.8 179.447C198.8 189.905 208.553 192.933 215.901 195.133C223.638 197.443 225.889 198.265 225.889 201.095C225.889 203.493 224.467 205.73 220.69 206.727C213.181 208.7 203.361 205.928 200.626 201.352C198.754 198.108 197.162 194.71 195.867 191.195C191.393 179.462 185.255 163.424 167.626 163.424C158.445 163.424 141.666 167.875 141.666 192.97C141.666 203.361 150.554 216.275 167.333 216.275C181.391 216.275 183.833 211.142 184.397 210.24L179.807 201.264C178.293 203.104 176.389 204.585 174.233 205.599C172.077 206.614 169.723 207.137 167.34 207.131C154.14 207.131 152.204 193.139 152.204 192.977C152.204 179.946 157.777 173.691 167.663 173.691C177.284 173.691 181.185 182.051 186.055 194.789C187.554 198.853 189.404 202.778 191.584 206.522C195.933 213.789 205.305 216.136 214.721 216.136C217.595 216.136 220.903 216.297 223.455 215.623C231.881 213.423 236.413 208.289 236.413 201.095C236.413 190.161 226.571 187.58 219.011 185.314L218.981 185.292Z" fill="white"/>
</g>
</g>
<defs>
<linearGradient id="paint0_linear_2215_6" x1="337.5" y1="18.5" x2="37.5" y2="356" gradientUnits="userSpaceOnUse">
<stop stop-color="#FFD0D0"/>
<stop offset="1" stop-color="#FF8B8B"/>
</linearGradient>
<linearGradient id="paint1_linear_2215_6" x1="440.756" y1="486.165" x2="-157" y2="486.165" gradientUnits="userSpaceOnUse">
<stop stop-color="#FFCFCF"/>
<stop offset="1" stop-color="#FF8E8E"/>
</linearGradient>
<linearGradient id="paint2_linear_2215_6" x1="-69.5261" y1="304.727" x2="430.474" y2="304.727" gradientUnits="userSpaceOnUse">
<stop stop-color="#FFBABA"/>
<stop offset="1" stop-color="#FFDFDF"/>
</linearGradient>
<linearGradient id="paint3_linear_2215_6" x1="-64.4604" y1="262.798" x2="435.54" y2="262.798" gradientUnits="userSpaceOnUse">
<stop stop-color="#FFC8C8"/>
<stop offset="1" stop-color="#FFE4E4"/>
</linearGradient>
<linearGradient id="paint4_linear_2215_6" x1="94.8133" y1="266.472" x2="270.96" y2="124.953" gradientUnits="userSpaceOnUse">
<stop stop-color="#D31F27"/>
<stop offset="1" stop-color="#FDD3D3"/>
</linearGradient>
<clipPath id="clip0_2215_6">
<rect width="380" height="380" rx="100" fill="white"/>
</clipPath>
<clipPath id="clip1_2215_6">
<rect width="220" height="220" fill="white" transform="translate(80 80)"/>
</clipPath>
</defs>
</svg>
